<svg xmlns="http://www.w3.org/2000/svg" width="248.573" height="234.955" viewBox="0 0 248.573 234.955">
  <g id="グループ_93" data-name="グループ 93" transform="translate(-1074.836 -10739.72)">
    <path id="パス_105" data-name="パス 105" d="M1205.282,10798.147c.29,4.044,31.99,6.812,35.64,6.436-1.223-12.927-12.611-23.682-18.315-34.893,14.284-7.63,37.314-2.379,51.412,3.448a79.2,79.2,0,0,1,37.811,32.58c15.448,26.277,14.947,60.414,1.424,87.731-31.264,63.152-118.281,100.1-184.277,71.3-43.241-18.871-65.439-85.39-48.377-127.875,2.414-6.008,5.771-12.79,10.5-17.343a128.9,128.9,0,0,1,10.215-8.456c3.038-2.37,2.1-2.641,5.588-2.685,2.452-.029,5.277,2.021,7.937,2.119,7.222.268,13.262-3.93,20.864-3.087-5.117,10.616-10.061,20.645-12.447,32.351a326.487,326.487,0,0,0,49.37-31.4,48.355,48.355,0,0,0,34.173,10.916Q1206.041,10808.721,1205.282,10798.147Z" fill="#f96637"/>
    <path id="パス_106" data-name="パス 106" d="M1134.98,10751.355c.973,5.532,9.587,9.8,13.675,13.22,1.846,1.544,15.121,10.936,14.288,13.8-.743,2.546-9.457,3.469-11.551,4.33-6.043,2.484-11.9,5.692-17.921,8.312-4.021,1.748-21.778,12.516-25.428,11.053a78.594,78.594,0,0,0,41.229-2.3l-14.756,30.413q21.157-17.619,42.315-35.238a34.721,34.721,0,0,0,24.991,16.783q-1.945-11.616-3.889-23.23a46.88,46.88,0,0,0,37.256,9.291c-.995.184-11.2-12.282-12.741-13.686a73.519,73.519,0,0,0-13.192-9.613,43.445,43.445,0,0,0,13.72-30.927c-9.731,11.613-20.716,14.925-33.993,20.129-1.688.662-12.572,9.357-11.586,10.863-3.723-5.691-10.036-9.1-14.577-14.066-5.547-6.067-9.585-13.783-14.022-20.764-4.268.97-8.78,2.227-11.666,5.518C1135.2,10747.434,1134.648,10749.468,1134.98,10751.355Z" fill="#77b439"/>
    <g id="グループ_92" data-name="グループ 92">
      <path id="パス_107" data-name="パス 107" d="M1204.952,10903.984l2.4,6.794-25.875,9.12.992,2.813-7.755,2.733-9.192-26.078a33.868,33.868,0,0,1-2.327,3.905,62.7,62.7,0,0,0-5.338-5.295l7.62,21.62-12.491,4.4,1.983,5.628-6.657,2.346-6.6-18.735a35.469,35.469,0,0,1-1.273,4.924,86.091,86.091,0,0,0-6.62-6.31c2.258-7.816,1.134-19.766-1.327-31.782l-7,2.468-2.636-7.481,25.256-8.9,1.354,3.843,14-4.937c-.164-2.872-.447-5.859-.865-8.8l10.1-1.324c.011.689-.462,1.319-1.49,1.682.192,1.862.386,3.722.486,5.539l16.059-5.661,4.692,13.315-7.344,2.588-.387-1.1a2.962,2.962,0,0,1-.8.36c-.065,1.564-.194,3.386-.393,5.229l9.2-3.24,2.419,6.862-10.913,3.847,1.355,3.844,8.991-3.17,2.153,6.108-8.991,3.17,1.4,3.979,8.991-3.169,2.129,6.04-8.991,3.169,1.4,3.98Zm-48.9,10.987-6.121-17.363-5.559,1.959,6.12,17.363Zm-1.7-26.944,2.879,8.167c4.035-6.283,5.968-14.371,6.343-23.376l-4.872,1.717,2.25,6.382-6.932,2.443-3.411-9.677-10.295,3.628c.846,5.026,1.623,10.076,2.028,14.948Zm23.685,2.839-1.354-3.843-6.04,2.129,1.354,3.843Zm3.556,10.089-1.4-3.981-6.04,2.129,1.4,3.981Zm-3.911,8.168,1.4,3.98,6.04-2.129-1.4-3.98Zm5.177-43.1-10.842,3.822a85.862,85.862,0,0,1-.772,11.382l4.6-1.62a79.086,79.086,0,0,0-.056-8.7l8.573-.629Z" fill="#fff"/>
      <path id="パス_108" data-name="パス 108" d="M1218.339,10849.808l2.3,6.521-25.118,8.853-2.3-6.52Zm8.4,29.292,5.927,16.815c1.4-4.351.86-10.257-.478-15.8l7.218-.538c1.466,6.35,2.5,13.237.526,18.564l-7.072-1.674,1.282,3.637-13.657,4.814.943,2.676-6.795,2.4-8.346-23.678Zm-6.838-18.962,2.2,6.245-20.108,7.087-2.2-6.245Zm-14.593,22.735-2.177-6.176,20.108-7.088,2.177,6.177Zm7.78-41.629,2.2,6.245-19.765,6.967-2.2-6.246Zm11.892,54.756-2.806-7.961-6.793,2.394,2.806,7.962Zm28.95-66.065c8.581,28.07,8.239,28.19-6.088,32.854a19.316,19.316,0,0,0-4.459-6.3l.916-.245c-1.525-.388-3.257-.7-5.15-1.039a31.781,31.781,0,0,1-7.505,15.916,23.525,23.525,0,0,0-6.955-4.186,25.126,25.126,0,0,0,6.711-12.7,85.253,85.253,0,0,0-8.566-.223l1.836-7.05a68.342,68.342,0,0,1,7.181.015c-.049-1.448-.234-2.85-.419-4.251l-10.363,3.653-2.419-6.863,28.62-10.087,1.6-.718,4.493-1.044Zm-2.09,56.677c.677,1.921.861,2.01,1.891,1.646l2.883-1.016c1.1-.387,1.106-1.239-.836-7.19a22.063,22.063,0,0,0,7.673.537c2.361,8.89,1.17,11.856-3.5,13.5l-5.01,1.767c-6.177,2.177-8.3.3-10.7-6.492l-5.032-14.275,9.527-2.741c.15.643-.185,1.225-1.279,1.841Zm1.054-12.331c-3.306-2.153-9.836-4.481-15.1-5.633l3.574-6.276c5.22,1.015,11.835,2.927,15.37,5.076Zm-7.1-18.406c1.6-.488,2.838-.923,3.8-1.261a2.244,2.244,0,0,0,1.495-1.454c.5-1.412-.33-5.747-3.454-16.144l-8.646,3.049c.293,2.365.566,4.892.658,7.56a78.126,78.126,0,0,1,7.709,1.3Zm23.545,32.209c-2.449-4.538-7.8-10.753-12.96-14.876l5.714-5.023a56.865,56.865,0,0,1,13.48,14.385Z" fill="#fff"/>
    </g>
  </g>
</svg>
