<svg xmlns="http://www.w3.org/2000/svg" width="1534.506" height="3315.468" viewBox="0 0 1534.506 3315.468">
  <g id="グループ_123" data-name="グループ 123" transform="translate(1885.712 -3534.767)">
    <g id="グループ_108" data-name="グループ 108" transform="translate(-1183.352 6750.331)">
      <line id="線_28" data-name="線 28" x2="49.72" y2="93.138" fill="none" stroke="#51942a" stroke-linecap="round" stroke-miterlimit="10" stroke-width="10"/>
      <line id="線_29" data-name="線 29" y1="93.138" x2="49.72" transform="translate(50.164)" fill="none" stroke="#51942a" stroke-linecap="round" stroke-miterlimit="10" stroke-width="10"/>
    </g>
    <g id="グループ_109" data-name="グループ 109" transform="translate(-1880.712 3539.767)">
      <line id="線_30" data-name="線 30" x2="0.001" transform="translate(747.367 3017.704)" fill="none" stroke="#51942a" stroke-miterlimit="10" stroke-width="10"/>
      <line id="線_31" data-name="線 31" x1="172.252" y1="0.49" transform="translate(575.115 3017.214)" fill="none" stroke="#51942a" stroke-miterlimit="10" stroke-width="10"/>
      <line id="線_32" data-name="線 32" x1="0.065" y2="280.149" transform="translate(747.302 3017.704)" fill="none" stroke="#51942a" stroke-miterlimit="10" stroke-width="10"/>
      <line id="線_33" data-name="線 33" x1="0.001" y2="5.855" transform="translate(747.367 3011.848)" fill="none" stroke="#51942a" stroke-miterlimit="10" stroke-width="10"/>
      <path id="パス_125" data-name="パス 125" d="M-1541.335,5474.2c-186.328,0-337.377,168.783-337.377,376.988s151.049,376.988,337.377,376.988" transform="translate(1880.712 -3211.22)" fill="none" stroke="#51942a" stroke-miterlimit="10" stroke-width="10"/>
      <line id="線_34" data-name="線 34" x1="1.047" transform="translate(338.33 2262.979)" fill="none" stroke="#51942a" stroke-miterlimit="10" stroke-width="10"/>
      <line id="線_35" data-name="線 35" x2="432.992" transform="translate(339.377 2262.979)" fill="none" stroke="#51942a" stroke-miterlimit="10" stroke-width="10"/>
      <line id="線_36" data-name="線 36" x2="236.909" transform="translate(339.377 3016.955)" fill="none" stroke="#51942a" stroke-miterlimit="10" stroke-width="10"/>
      <path id="パス_126" data-name="パス 126" d="M-693.582,5583.743c186.328,0,337.376-168.783,337.376-376.988s-151.048-376.987-337.376-376.987" transform="translate(1880.712 -3320.671)" fill="none" stroke="#51942a" stroke-miterlimit="10" stroke-width="10"/>
      <line id="線_37" data-name="線 37" x2="4.728" transform="translate(1187.13 1509.096)" fill="none" stroke="#51942a" stroke-miterlimit="10" stroke-width="10"/>
      <line id="線_38" data-name="線 38" x2="406.762" y2="0.494" transform="translate(780.368 1508.602)" fill="none" stroke="#51942a" stroke-miterlimit="10" stroke-width="10"/>
      <line id="線_39" data-name="線 39" x1="414.762" transform="translate(772.368 2263.072)" fill="none" stroke="#51942a" stroke-miterlimit="10" stroke-width="10"/>
      <path id="パス_127" data-name="パス 127" d="M-1543.335,4184.2c-186.328,0-337.377,168.784-337.377,376.988s151.049,376.988,337.377,376.988" transform="translate(1880.712 -3430.315)" fill="none" stroke="#51942a" stroke-miterlimit="10" stroke-width="10"/>
      <line id="線_40" data-name="線 40" x2="1.047" transform="translate(336.33 753.883)" fill="none" stroke="#51942a" stroke-miterlimit="10" stroke-width="10"/>
      <line id="線_41" data-name="線 41" x2="432.992" transform="translate(337.377 753.883)" fill="none" stroke="#51942a" stroke-miterlimit="10" stroke-width="10"/>
      <line id="線_42" data-name="線 42" x1="442.991" y1="0.743" transform="translate(337.377 1507.859)" fill="none" stroke="#51942a" stroke-miterlimit="10" stroke-width="10"/>
      <path id="パス_128" data-name="パス 128" d="M-695.582,4293.742c186.328,0,337.376-168.783,337.376-376.988s-151.048-376.987-337.376-376.987" transform="translate(1880.712 -3539.766)" fill="none" stroke="#51942a" stroke-miterlimit="10" stroke-width="10"/>
      <line id="線_43" data-name="線 43" x2="4.728" transform="translate(1185.13)" fill="none" stroke="#51942a" stroke-miterlimit="10" stroke-width="10"/>
      <line id="線_44" data-name="線 44" x2="383.762" transform="translate(801.368)" fill="none" stroke="#51942a" stroke-miterlimit="10" stroke-width="10"/>
      <line id="線_45" data-name="線 45" x1="414.762" transform="translate(770.368 753.977)" fill="none" stroke="#51942a" stroke-miterlimit="10" stroke-width="10"/>
    </g>
  </g>
</svg>
