<svg id="グループ_115" data-name="グループ 115" xmlns="http://www.w3.org/2000/svg" xmlns:xlink="http://www.w3.org/1999/xlink" width="270" height="153.083" viewBox="0 0 270 153.083">
  <defs>
    <clipPath id="clip-path">
      <rect id="長方形_53" data-name="長方形 53" width="270" height="153.083" fill="none"/>
    </clipPath>
  </defs>
  <g id="グループ_114" data-name="グループ 114" clip-path="url(#clip-path)">
    <text id="Vege_an" data-name="Vege an" transform="translate(112.784 133.708)" fill="#fff" font-size="40" font-family="Helvetica"><tspan x="0" y="0">Vege an</tspan></text>
    <path id="パス_130" data-name="パス 130" d="M79.217,21.431c30.371,7.251,29.752,36.389,22.933,49.563H76.118l17.24,11.92a49.907,49.907,0,0,1-9.8,15.945c-15.5-3.035-19.836-3.035-19.836-3.035s5.58,9.676,9.3,9.676c-4.959,7.528-33.47,20.076-33.47,20.076s-11.5-45.8-4.2-48.308,16.6-.63,16.6-.63-16.459-6.27-16.6-11.919S38.529,11.715,79.217,21.431Z" transform="translate(15.753 12.601)" fill="#9cce66" stroke="#fff" stroke-miterlimit="10" stroke-width="1"/>
    <path id="パス_132" data-name="パス 132" d="M38.086,41.964s-23.66-9.291-33.75,11.647C-4.369,71.682.258,92.154,34.016,106.032a145.952,145.952,0,0,0,17.895,5.891C40.78,77.75,33.93,62.433,38.086,41.964Z" transform="translate(0.239 24.994)" fill="#9cce66" stroke="#fff" stroke-miterlimit="10" stroke-width="1"/>
    <path id="パス_133" data-name="パス 133" d="M66.359,27.708c5.07-2.958,17.849-10.2,25.515-12.685a2.25,2.25,0,0,0,.695-4.008c-1.36-.965-2.461-1.651-3.263-2.111a2.538,2.538,0,0,0-2.815.21L80.443,13.86l3.569-4.736a2.241,2.241,0,0,0-1.074-3.473c-3.86-1.457-10.284-3.732-10.423-2.82-.2,1.309-2.177,7.846-2.177,7.846S69.345,1.336,67.956.4,59.434.214,61.019,2.084c1.279,1.508.237,17.479,1.659,24.091a2.478,2.478,0,0,0,3.682,1.53" transform="translate(29.088 0)" fill="#fff" stroke="#9cce66" stroke-width="1"/>
    <path id="パス_134" data-name="パス 134" d="M23.61,48.023c4.451-.145,19.772-8.64,16.106-12.818s-6.9,1.153-7.772,1.872c.18-2.16,5.809-19.011-3.226-18.866S21.037,34.176,21.6,34.331c-2.187-2.15-10.983-15.86-16.979-9.206-7.2,7.993,18.985,22.9,18.985,22.9" transform="translate(1.613 11.404)" fill="#fff" stroke="#9cce66" stroke-width="1"/>
    <path id="パス_135" data-name="パス 135" d="M86.744,22.73c-10.911,3.888-19.184,14.158-24.8,25.443C57.994,55.9,53.362,64,49.166,72.42l.384.153s-.151-.031-.421-.078c-7.29,14.646-13.23,30.244-11.942,46.45.242,1.023.391,1.62.391,1.62s27.54-12.306,32.326-19.69c-3.591,0-8.979-9.489-8.979-9.489s4.19,0,19.156,2.976A49.121,49.121,0,0,0,89.547,78.73L72.9,67.039H98.039c5.639-11.064,6.869-33.59-11.3-44.309" transform="translate(17.71 14.235)" fill="#fff"/>
    <path id="パス_131" data-name="パス 131" d="M34.34,80.256c-5.31-14.742-10.629-32.963-23.5-37.874a22.32,22.32,0,0,0-6.76,8.269c-9.409,18.956-2.121,40.833,44.37,52.791-1.7-5.053-3.282-9.643-4.737-13.88-3.793-2.962-7.847-5.234-9.373-9.307" transform="translate(0.24 26.542)" fill="#fff"/>
  </g>
</svg>
