<svg id="グループ_115" data-name="グループ 115" xmlns="http://www.w3.org/2000/svg" xmlns:xlink="http://www.w3.org/1999/xlink" width="300" height="170.092" viewBox="0 0 300 170.092">
  <defs>
    <clipPath id="clip-path">
      <rect id="長方形_53" data-name="長方形 53" width="300" height="170.092" fill="none"/>
    </clipPath>
  </defs>
  <g id="グループ_114" data-name="グループ 114" clip-path="url(#clip-path)">
    <text id="Vege_an" data-name="Vege an" transform="translate(125.316 148.12)" fill="#fff" font-size="44" font-family="Helvetica"><tspan x="0" y="0">Vege an</tspan></text>
    <path id="パス_130" data-name="パス 130" d="M84.361,21.576c33.746,8.057,33.058,40.432,25.481,55.07H80.918L100.073,89.89a55.453,55.453,0,0,1-10.89,17.717c-17.218-3.372-22.04-3.372-22.04-3.372s6.2,10.751,10.331,10.751c-5.51,8.364-37.189,22.307-37.189,22.307S27.506,86.4,35.617,83.617s18.442-.7,18.442-.7S35.771,75.95,35.617,69.674,39.152,10.781,84.361,21.576Z" transform="translate(21.161 16.237)" fill="#9cce66" stroke="#fff" stroke-miterlimit="10" stroke-width="1"/>
    <path id="パス_132" data-name="パス 132" d="M42.262,42.192S15.973,31.869,4.762,55.133C-4.911,75.212.23,97.959,37.739,113.379a162.169,162.169,0,0,0,19.883,6.546C45.255,81.955,37.644,64.936,42.262,42.192Z" transform="translate(0.322 32.205)" fill="#9cce66" stroke="#fff" stroke-miterlimit="10" stroke-width="1"/>
    <path id="パス_133" data-name="パス 133" d="M66.978,30.787C72.611,27.5,86.81,19.45,95.328,16.693A2.5,2.5,0,0,0,96.1,12.24c-1.511-1.072-2.735-1.834-3.626-2.345a2.82,2.82,0,0,0-3.128.233L82.627,15.4l3.966-5.262A2.49,2.49,0,0,0,85.4,6.279C81.111,4.66,73.973,2.132,73.819,3.146,73.6,4.6,71.4,11.864,71.4,11.864S70.295,1.485,68.752.446s-9.469-.208-7.708,1.87c1.421,1.675.263,19.421,1.843,26.768a2.753,2.753,0,0,0,4.091,1.7" transform="translate(39.075 0)" fill="#fff" stroke="#9cce66" stroke-width="1"/>
    <path id="パス_134" data-name="パス 134" d="M25.859,51.336c4.946-.161,21.969-9.6,17.9-14.242s-7.669,1.281-8.636,2.08c.2-2.4,6.454-21.123-3.585-20.962S23,35.95,23.63,36.122C21.2,33.733,11.427,18.5,4.764,25.893c-8,8.881,21.095,25.443,21.095,25.443" transform="translate(2.167 14.695)" fill="#fff" stroke="#9cce66" stroke-width="1"/>
    <path id="パス_135" data-name="パス 135" d="M92.27,22.73C80.147,27.05,70.954,38.461,64.717,51c-4.391,8.581-9.538,17.585-14.2,26.941l.427.17s-.168-.034-.468-.087c-8.1,16.273-14.7,33.6-13.269,51.611.269,1.137.434,1.8.434,1.8s30.6-13.673,35.918-21.878c-3.99,0-9.977-10.543-9.977-10.543s4.656,0,21.284,3.307A54.579,54.579,0,0,0,95.384,84.952l-18.5-12.99H104.82c6.266-12.293,7.632-37.322-12.551-49.232" transform="translate(23.79 18.342)" fill="#fff"/>
    <path id="パス_131" data-name="パス 131" d="M38.1,84.464c-5.9-16.38-11.81-36.625-26.112-42.082A24.8,24.8,0,0,0,4.477,51.57c-10.455,21.062-2.357,45.37,49.3,58.657-1.884-5.614-3.647-10.715-5.263-15.422C44.3,91.514,39.8,88.99,38.1,84.464" transform="translate(0.322 34.2)" fill="#fff"/>
  </g>
</svg>
