<?xml version="1.0" encoding="utf-8"?>
<!-- Generator: Adobe Illustrator 24.2.3, SVG Export Plug-In . SVG Version: 6.00 Build 0)  -->
<svg version="1.1" id="レイヤー_1" xmlns="http://www.w3.org/2000/svg" xmlns:xlink="http://www.w3.org/1999/xlink" x="0px"
	 y="0px" viewBox="0 0 580 580" style="enable-background:new 0 0 580 580;" xml:space="preserve">
<style type="text/css">
	.st0{fill:none;stroke:#785A4D;stroke-width:11;stroke-linecap:round;stroke-miterlimit:10;}
	.st1{fill:none;stroke:#785A4D;stroke-width:11;stroke-linecap:round;stroke-linejoin:round;}
</style>
<g id="round" transform="translate(-634.592 -171.752)">
	<path id="パス_189" class="st0" d="M700.3,377.7c-35.2,94.5-7.6,204.9,75.8,271c22.2,17.7,47.4,31.2,74.4,40"/>
	<path id="パス_190" class="st0" d="M1152.4,389.2c40,125.9-29.6,260.3-155.5,300.1c-27.7,8.8-56.9,12.4-85.9,10.8"/>
	<path id="パス_191" class="st0" d="M737,312.7c82-103.4,232.4-120.7,335.9-38.7c18.9,15,35.5,32.7,49.1,52.6"/>
	<path id="パス_192" class="st1" d="M653.7,416.3l47.1-39.6l14.4,60.4"/>
	<path id="パス_193" class="st1" d="M1127.5,277.2l-1.9,61.5l-54.6-29.6"/>
	<path id="パス_194" class="st1" d="M951,735.3l-50.3-35.5l54.8-29.1"/>
</g>
</svg>
