<svg xmlns="http://www.w3.org/2000/svg" width="90.045" height="92.671" viewBox="0 0 90.045 92.671">
  <g id="グループ_130" data-name="グループ 130" transform="translate(-1433.823 -791.605)">
    <g id="グループ_122" data-name="グループ 122">
      <path id="パス_139" data-name="パス 139" d="M1520.678,837.049c-.243-2.465-2.094-4.512-4.824-5.778,1.093-2.8,1.013-5.562-.519-7.513-2.847-3.624-9.591-3.07-15.063,1.231s-12.288,17.484-12.288,17.484,14.044,4.8,20.972,4.111S1521.134,841.632,1520.678,837.049Z" fill="#8ec020"/>
    </g>
    <g id="グループ_123" data-name="グループ 123">
      <path id="パス_140" data-name="パス 140" d="M1518.252,874.164a9.212,9.212,0,0,1,5.485-9.309c.857-3.369-2.578-7.146-7.667-8.439s-16.11.7-16.11.7,3.6,10.6,7.193,14.43S1515.719,876.545,1518.252,874.164Z" fill="#8ec020"/>
    </g>
    <g id="グループ_124" data-name="グループ 124">
      <path id="パス_141" data-name="パス 141" d="M1470.78,816.612a7.792,7.792,0,0,1-9.143-.054c-2.829.806-4.133,4.926-2.913,9.2s7.36,11.486,7.36,11.486,6.229-7.138,7.5-11.4S1473.6,817.455,1470.78,816.612Z" fill="#8ec020"/>
    </g>
    <g id="グループ_125" data-name="グループ 125">
      <path id="パス_142" data-name="パス 142" d="M1501.336,796.123c-2.037-1.409-4.8-1.319-7.526-.056-1.433-2.646-3.59-4.368-6.065-4.458-4.6-.169-8.544,5.332-8.8,12.287s5.4,20.68,5.4,20.68,12.735-7.614,16.694-13.34S1505.128,798.741,1501.336,796.123Z" fill="#8ec020"/>
    </g>
    <g id="グループ_126" data-name="グループ 126">
      <path id="パス_143" data-name="パス 143" d="M1443.8,884.276l-1.293-1.894c19.125-13.074,35.306-41.628,42.246-62.626l2.18.719C1479.634,842.542,1463.471,870.83,1443.8,884.276Z" fill="#8ec020"/>
    </g>
    <g id="グループ_127" data-name="グループ 127">
      <path id="パス_144" data-name="パス 144" d="M1435.116,883.743l-1.293-1.894c17.1-11.693,30.394-29.2,31.243-46.812l2.292.112C1466.47,853.549,1452.873,871.6,1435.116,883.743Z" fill="#8ec020"/>
    </g>
    <g id="グループ_128" data-name="グループ 128">
      <path id="パス_145" data-name="パス 145" d="M1437.651,875.281l-1.3-1.894c13.618-9.308,44.9-28.445,55.789-34.129l1.06,2.038C1482.37,846.948,1451.217,866.007,1437.651,875.281Z" fill="#8ec020"/>
    </g>
    <g id="グループ_129" data-name="グループ 129">
      <path id="パス_146" data-name="パス 146" d="M1439.095,866.54l-1.3-1.895c27.764-18.975,58.535-11.8,64.833-7.149l-1.365,1.846C1495.957,855.415,1466.07,848.1,1439.095,866.54Z" fill="#8ec020"/>
    </g>
  </g>
</svg>
