<svg xmlns="http://www.w3.org/2000/svg" width="81.764" height="75.974" viewBox="0 0 81.764 75.974">
  <g id="グループ_5" data-name="グループ 5" transform="translate(-1071.2 -17.517)">
    <path id="パス_22" data-name="パス 22" d="M1074.664,43.831c-9.58,25.033,2.45,41.662,14.967,46.451,11.3,4.325,24.468,5.6,28.419-4.73,3.3-8.629-1.333-13.327-2.769-13.88s-4.14-.469-4.809,1.644c-1.237,3.908,5.393,4.341,4.928,8.852-.577,5.632-5.449,7.249-14.565,3.761s-11.608-11.547-9.126-18.04c1.694-4.429,8.434-8,13.538-6.045s12.82,9.553,14.846,11.81c3.417,3.821,19.91,13.168,21.93,12.267.973-.435,4.047-7.646,6.4-13.871,2.4-6.2,4.927-13.623,4.492-14.6-.9-2.019-19.425-6.066-24.516-5.506a76.734,76.734,0,0,1-9.16.284,32.773,32.773,0,0,1-9.778-1.4c-5.106-1.954-7.739-9.109-6.045-13.537,2.485-6.494,9.723-10.831,18.837-7.344s11.662,7.945,8.335,12.523c-2.189,3.011-6.095.8-8.359,1.964a2.65,2.65,0,0,0-1.22,1.337c-.911,2.019,1.047,3.885,2.484,4.434s8.022.145,11.326-8.483c3.95-10.33-6.7-18.169-18-22.494C1104.3,14.444,1084.244,18.8,1074.664,43.831Z" fill="#f7dcc4"/>
    <path id="パス_23" data-name="パス 23" d="M1111.41,29.469l11.117,14.847a9.863,9.863,0,0,1,3.615-.178l-9.036-15.369A14.062,14.062,0,0,0,1111.41,29.469Z" fill="#f6b378"/>
    <path id="パス_24" data-name="パス 24" d="M1103.778,36.471,1118.4,48.755a4.7,4.7,0,0,1,1.337-2.6l-13.1-13.739A13.468,13.468,0,0,0,1103.778,36.471Z" fill="#f6b378"/>
    <path id="パス_25" data-name="パス 25" d="M1109.462,50.832a28.559,28.559,0,0,0,8,1.327l-14.1-8.718A10.9,10.9,0,0,0,1109.462,50.832Z" fill="#f6b378"/>
    <path id="パス_26" data-name="パス 26" d="M1129.447,43.526a3.821,3.821,0,0,0,1.146-1.05c3.048-4.194,1.148-8.276-6.189-11.621Z" fill="#f6b378"/>
    <path id="パス_27" data-name="パス 27" d="M1103.418,37.295a10.055,10.055,0,0,0-.055,6.146l14.1,8.718q.891.048,1.774.073a5.375,5.375,0,0,1-.841-3.477l-14.621-12.284C1103.653,36.743,1103.526,37.014,1103.418,37.295Z" fill="#f6b378"/>
    <path id="パス_28" data-name="パス 28" d="M1103.418,37.295a10.055,10.055,0,0,0-.055,6.146l14.1,8.718q.891.048,1.774.073a5.375,5.375,0,0,1-.841-3.477l-14.621-12.284C1103.653,36.743,1103.526,37.014,1103.418,37.295Z" fill="#f6b378"/>
    <path id="パス_29" data-name="パス 29" d="M1106.639,32.418l13.1,13.741a8.075,8.075,0,0,1,2.492-1.719h0a2.381,2.381,0,0,1,.3-.128L1111.41,29.476A12.928,12.928,0,0,0,1106.639,32.418Z" fill="#f6b378"/>
    <path id="パス_30" data-name="パス 30" d="M1106.639,32.418l13.1,13.741a8.075,8.075,0,0,1,2.492-1.719h0a2.381,2.381,0,0,1,.3-.128L1111.41,29.476A12.928,12.928,0,0,0,1106.639,32.418Z" fill="#f6b378"/>
    <path id="パス_31" data-name="パス 31" d="M1122.256,29.952a18.135,18.135,0,0,0-5.15-1.183l9.036,15.369a5.859,5.859,0,0,0,3.311-.613l-5.048-12.671C1123.724,30.552,1123.021,30.246,1122.256,29.952Z" fill="#f6b378"/>
    <path id="パス_32" data-name="パス 32" d="M1122.256,29.952a18.135,18.135,0,0,0-5.15-1.183l9.036,15.369a5.859,5.859,0,0,0,3.311-.613l-5.048-12.671C1123.724,30.552,1123.021,30.246,1122.256,29.952Z" fill="#f6b378"/>
    <path id="パス_33" data-name="パス 33" d="M1092.438,79.053l18.189-3.633a9.888,9.888,0,0,0,2.571,2.548l-16.987,5.411A14.108,14.108,0,0,1,1092.438,79.053Z" fill="#f6b378"/>
    <path id="パス_34" data-name="パス 34" d="M1091.428,68.745l19.089.612a4.711,4.711,0,0,0-.742,2.829l-18.922,1.486A13.471,13.471,0,0,1,1091.428,68.745Z" fill="#f6b378"/>
    <path id="パス_35" data-name="パス 35" d="M1105.248,61.848a28.525,28.525,0,0,1,6.842,4.355l-16.319-2.923A10.9,10.9,0,0,1,1105.248,61.848Z" fill="#f6b378"/>
    <path id="パス_36" data-name="パス 36" d="M1115.255,80.628a3.822,3.822,0,0,1,.15,1.544c-.528,5.156-4.672,6.934-12.367,4.52Z" fill="#f6b378"/>
    <path id="パス_37" data-name="パス 37" d="M1091.71,67.892a10.064,10.064,0,0,1,4.062-4.612l16.319,2.923q.7.556,1.373,1.129a5.386,5.386,0,0,0-2.947,2.026l-19.089-.611C1091.518,68.462,1091.6,68.174,1091.71,67.892Z" fill="#f6b378"/>
    <path id="パス_38" data-name="パス 38" d="M1091.71,67.892a10.064,10.064,0,0,1,4.062-4.612l16.319,2.923q.7.556,1.373,1.129a5.386,5.386,0,0,0-2.947,2.026l-19.089-.611C1091.518,68.462,1091.6,68.174,1091.71,67.892Z" fill="#f6b378"/>
    <path id="パス_39" data-name="パス 39" d="M1090.853,73.674l18.921-1.488a8.076,8.076,0,0,0,.707,2.943h0a2.68,2.68,0,0,0,.141.29l-18.189,3.633A12.919,12.919,0,0,1,1090.853,73.674Z" fill="#f6b378"/>
    <path id="パス_40" data-name="パス 40" d="M1090.853,73.674l18.921-1.488a8.076,8.076,0,0,0,.707,2.943h0a2.68,2.68,0,0,0,.141.29l-18.189,3.633A12.919,12.919,0,0,1,1090.853,73.674Z" fill="#f6b378"/>
    <path id="パス_41" data-name="パス 41" d="M1100.836,85.933a18.162,18.162,0,0,1-4.625-2.556l16.987-5.411a5.848,5.848,0,0,1,2.054,2.662l-12.218,6.064C1102.328,86.471,1101.6,86.227,1100.836,85.933Z" fill="#f6b378"/>
    <path id="パス_42" data-name="パス 42" d="M1100.836,85.933a18.162,18.162,0,0,1-4.625-2.556l16.987-5.411a5.848,5.848,0,0,1,2.054,2.662l-12.218,6.064C1102.328,86.471,1101.6,86.227,1100.836,85.933Z" fill="#f6b378"/>
  </g>
</svg>
