<svg xmlns="http://www.w3.org/2000/svg" width="121.024" height="65.677" viewBox="0 0 121.024 65.677">
  <g id="グループ_145" data-name="グループ 145" transform="translate(-1438.976 -662.318)">
    <g id="グループ_144" data-name="グループ 144">
      <path id="パス_158" data-name="パス 158" d="M1486.131,693.556l-.043-.116c.255-.094.487-.156.741-.254,19.648-10.309,38.832-17.023,56.378-22.319l.41,1.355a329.339,329.339,0,0,0-48.666,18.464c11.541-2.975,20.433-2.352,28.581,1.967l-.661,1.249c-9.558-5.06-20.221-4.872-35.465.586a234.742,234.742,0,0,0-23.128,13.853c13.889-5.143,24.922-5.193,34.38-.19L1498,709.4c-10.288-5.442-22.613-4.64-38.785,2.524a235.155,235.155,0,0,0-19.6,15.911c1.124.085,36.6,2.577,68.1-15.556A209.59,209.59,0,0,0,1560,669.086s-25.912-19.434-72.8,7.563c-30.135,17.349-49.447,41.031-48.159,49.726A233.644,233.644,0,0,1,1486.131,693.556Z" fill="#51942a"/>
    </g>
  </g>
</svg>
