<svg xmlns="http://www.w3.org/2000/svg" width="116.581" height="110.74" viewBox="0 0 116.581 110.74">
  <g id="グループ_117" data-name="グループ 117" transform="translate(359.342 768.863)">
    <path id="パス_38" data-name="パス 38" d="M1448.15,508.5c-.61,1.766,12.325,8.687,13.94,9.189,1.826-5.7-1.052-12.325-1.437-18.111,7.438-.644,16.248,5.757,21.168,10.783a36.517,36.517,0,0,1,10.121,20.666c1.784,13.939-4.618,28.319-15.3,37.447-24.7,21.1-68.286,20.987-91.04-3.187-14.908-15.839-12.258-48.061,2.678-62.976a23.344,23.344,0,0,1,7.595-5.448,59.382,59.382,0,0,1,5.863-1.732c1.717-.454,1.368-.739,2.855-.125,1.045.432,1.871,1.813,2.981,2.337,3.013,1.423,6.334.739,9.4,2.475-4.094,3.572-8.007,6.926-11.141,11.456a150.548,150.548,0,0,0,26.62-4.358,22.288,22.288,0,0,0,12.506,10.823Z" transform="translate(-1735 -1242)" fill="#f96637"/>
    <path id="パス_39" data-name="パス 39" d="M1426.833,475.915c-.591,2.522,2.287,5.893,3.4,8.083.5.989,4.427,7.378,3.555,8.439-.777.944-4.638-.244-5.682-.259-3.012-.042-6.074.257-9.1.275-2.022.011-11.5,1.356-12.783.074a36.237,36.237,0,0,0,17.894,6.5l-11.769,10.216,24.326-7.265a16.009,16.009,0,0,0,7.55,11.645q1.283-5.275,2.564-10.552a21.614,21.614,0,0,0,14.108,10.692c-.455-.1-2.521-7.236-2.92-8.11a33.794,33.794,0,0,0-3.849-6.467,20.029,20.029,0,0,0,11.423-10.622c-6.23,3.158-11.487,2.57-18.059,2.369-.835-.025-7.025,1.687-6.88,2.5-.546-3.088-2.6-5.678-3.629-8.606-1.252-3.578-1.564-7.58-2.18-11.343-1.984-.364-4.125-.649-5.945.223A3.32,3.32,0,0,0,1426.833,475.915Z" transform="translate(-1735 -1242)" fill="#77b439"/>
  </g>
</svg>
