<svg xmlns="http://www.w3.org/2000/svg" width="93.512" height="186.992" viewBox="0 0 93.512 186.992">
  <g id="グループ_4" data-name="グループ 4" transform="translate(-465.576 -255.521)">
    <path id="パス_16" data-name="パス 16" d="M547.6,332.818c-14.169,24.634-8.654,48.615-6.984,57.118s7.455,38.676-23.042,49.678c-42.981,15.509-71.437-33.373-35.969-94.71s59.27-59.9,65.115-54.746C560.3,302.14,553.9,321.867,547.6,332.818Z" fill="#894a7c"/>
    <path id="パス_17" data-name="パス 17" d="M549.636,274.381c-1.4,11.294,3.563,15.37,6.617,22.649s2.832,27.874,2.832,27.874c-12.427-10.963-14.066-23.111-14.066-23.111a17.115,17.115,0,0,1-10.879,7.826c-7.534,1.608-15.31,9.728-15.31,9.728,2.1-18.322,13.212-27.168,13.212-27.168-10.116,7.586-23.527,2.478-23.527,2.478,6.409-1.376,16.593-12.569,22.835-13.787s7.258,1.509,10.259.185,3.928-12.425,3.021-16.592a8,8,0,0,0-4.571-5.562c3.945-4.465,7.564-3.721,9.283-2.2C550.4,257.638,551.039,263.087,549.636,274.381Z" fill="#8ec020"/>
  </g>
</svg>
