<svg xmlns="http://www.w3.org/2000/svg" width="90.673" height="130.554" viewBox="0 0 90.673 130.554">
  <path id="パス_18" data-name="パス 18" d="M549.552,567.555c-3.814-49.548-35.24-69.278-55.06-67.756-23.122,1.777-37.774,27.275-34.835,65.44s26.541,66.63,48.2,64.963S553.366,617.1,549.552,567.555Zm-39.233-42.022a1.656,1.656,0,0,1-.254-3.3l9.176-.707a1.66,1.66,0,0,1,.254,3.311h0Zm-25.852,11.962a2.209,2.209,0,0,1-.337-4.4l10.643-.818a2.209,2.209,0,0,1,.427,4.4l-.089.006Zm37.607,8.923a2.208,2.208,0,0,1-.339-4.4l7.708-.594a2.209,2.209,0,0,1,.339,4.4h0Zm-18.548,13.238a2.577,2.577,0,1,1-.4-5.139h0l9.55-.734a2.577,2.577,0,0,1,.4,5.138Zm-21.951,24.21a2.025,2.025,0,1,1-.311-4.038l8.075-.622a2.025,2.025,0,1,1,.311,4.038h0Zm47.713-3.68a2.024,2.024,0,1,1-.31-4.037l10.277-.791a2.025,2.025,0,0,1,.311,4.038h0ZM499.4,602.054a2.209,2.209,0,0,1-.336-4.4l8.075-.621a2.208,2.208,0,1,1,.339,4.4Z" transform="translate(-459.283 -499.718)" fill="#c13e46"/>
</svg>
