<svg xmlns="http://www.w3.org/2000/svg" width="79.622" height="53.684" viewBox="0 0 79.622 53.684">
  <g id="グループ_51" data-name="グループ 51" transform="translate(-549.284 -875.653)">
    <g id="グループ_43" data-name="グループ 43">
      <path id="パス_69" data-name="パス 69" d="M576.329,901.99v.063l-19.6,4.069a1.006,1.006,0,0,0-.561,1.644,57.9,57.9,0,0,0,9.684,8.643,41.827,41.827,0,0,0,5.037,3.123,1.02,1.02,0,0,0,.927.01l17-8.451a1,1,0,0,0,.026-1.783C584.533,906.984,580.333,904.513,576.329,901.99Z" fill="#51942a"/>
    </g>
    <g id="グループ_44" data-name="グループ 44">
      <path id="パス_70" data-name="パス 70" d="M612.236,918.376a99.054,99.054,0,0,0,15.468,4.577,1.007,1.007,0,0,0,1.158-1.282c-1.378-4.594-8.177-11.577-16.629-18.822a1.008,1.008,0,0,0-1.656.834l1.015,13.821A1.016,1.016,0,0,0,612.236,918.376Z" fill="#51942a"/>
    </g>
    <g id="グループ_45" data-name="グループ 45">
      <path id="パス_71" data-name="パス 71" d="M592.138,906.924l-.448-19.664a1.008,1.008,0,0,0-.411-.79q-.839-.618-1.665-1.221a54.878,54.878,0,0,0-12.423-7.087,1.007,1.007,0,0,0-1.368,1.018l1.745,20.479a1.007,1.007,0,0,0,.465.764c4.036,2.548,8.275,5.051,12.619,7.4a1.009,1.009,0,0,0,1.486-.9Z" fill="#51942a"/>
    </g>
    <g id="グループ_46" data-name="グループ 46">
      <path id="パス_72" data-name="パス 72" d="M592.439,911.909,575.6,920.278a1.007,1.007,0,0,0,.06,1.827,79.413,79.413,0,0,0,18.249,5.255,1.007,1.007,0,0,0,.73-.155l11.532-7.637a1,1,0,0,0-.173-1.756c-4.246-1.756-8.49-3.751-12.664-5.9A.989.989,0,0,0,592.439,911.909Z" fill="#51942a"/>
    </g>
    <g id="グループ_47" data-name="グループ 47">
      <path id="パス_73" data-name="パス 73" d="M608.095,899.464c-4.049-3.344-8.342-6.684-12.517-9.815a1,1,0,0,0-1.6.833l.433,18.985a1.011,1.011,0,0,0,.545.875c4.363,2.26,8.806,4.344,13.241,6.163a1.008,1.008,0,0,0,1.381-1.019l-1.126-15.322A1,1,0,0,0,608.095,899.464Z" fill="#51942a"/>
    </g>
    <g id="グループ_48" data-name="グループ 48">
      <path id="パス_74" data-name="パス 74" d="M609.369,919.893,598.926,926.8a1.009,1.009,0,0,0,.441,1.84c13.35,1.622,25.357.31,27.8-3.049a2.839,2.839,0,0,0,.394-.816,98.052,98.052,0,0,1-17.29-4.991A1,1,0,0,0,609.369,919.893Z" fill="#51942a"/>
    </g>
    <g id="グループ_49" data-name="グループ 49">
      <path id="パス_75" data-name="パス 75" d="M554.994,883.775a204.2,204.2,0,0,0,18.76,13.817,1.008,1.008,0,0,0,1.556-.927l-1.65-19.415a1.016,1.016,0,0,0-.749-.891c-8.348-2.15-14.007.82-18.063,6.042C554.9,882.919,554.936,883.25,554.994,883.775Z" fill="#51942a"/>
    </g>
    <g id="グループ_50" data-name="グループ 50">
      <path id="パス_76" data-name="パス 76" d="M572.049,899.162A205.994,205.994,0,0,1,553.155,885.3a1,1,0,0,0-1.4.137.922.922,0,0,0-.1.152c-3.138,5.384-3.594,11.554,1.348,18.657a1.017,1.017,0,0,0,1.035.41l17.679-3.669a1,1,0,0,0,.338-1.826Z" fill="#51942a"/>
    </g>
  </g>
</svg>
