<svg xmlns="http://www.w3.org/2000/svg" width="43.888" height="81.835" viewBox="0 0 43.888 81.835">
  <g id="グループ_60" data-name="グループ 60" transform="translate(-499.298 -122.953)">
    <g id="グループ_52" data-name="グループ 52">
      <path id="パス_77" data-name="パス 77" d="M517.756,152.186l-.04.049-16.787-10.91a1.006,1.006,0,0,0-1.555.772,57.863,57.863,0,0,0,.794,12.957,41.853,41.853,0,0,0,1.378,5.762,1.017,1.017,0,0,0,.652.661l18.021,5.963a1,1,0,0,0,1.274-1.246C520.067,161.507,518.825,156.8,517.756,152.186Z" fill="#51942a"/>
    </g>
    <g id="グループ_53" data-name="グループ 53">
      <path id="パス_78" data-name="パス 78" d="M531.724,189.1a98.888,98.888,0,0,0,7.763,14.136,1.007,1.007,0,0,0,1.725-.1c2.255-4.234,2.34-13.979,1.438-25.075a1.006,1.006,0,0,0-1.766-.576l-9.009,10.53A1.018,1.018,0,0,0,531.724,189.1Z" fill="#51942a"/>
    </g>
    <g id="グループ_54" data-name="グループ 54">
      <path id="パス_79" data-name="パス 79" d="M525.511,166.819l13.526-14.28a1.019,1.019,0,0,0,.263-.852q-.159-1.03-.321-2.038a54.967,54.967,0,0,0-3.834-13.778,1.009,1.009,0,0,0-1.334-.506.994.994,0,0,0-.36.273L520.276,151.41a1.006,1.006,0,0,0-.211.874c1.07,4.652,2.319,9.409,3.75,14.135a1.009,1.009,0,0,0,1.7.4Z" fill="#51942a"/>
    </g>
    <g id="グループ_55" data-name="グループ 55">
      <path id="パス_80" data-name="パス 80" d="M522.211,170.569l-17.848-5.9A1.007,1.007,0,0,0,503.12,166a79.328,79.328,0,0,0,9.261,16.579,1.007,1.007,0,0,0,.628.4l13.563,2.7a1,1,0,0,0,1.114-1.368c-1.781-4.236-3.392-8.642-4.841-13.108A1,1,0,0,0,522.211,170.569Z" fill="#51942a"/>
    </g>
    <g id="グループ_56" data-name="グループ 56">
      <path id="パス_81" data-name="パス 81" d="M542.1,172.755c-.521-5.221-1.219-10.621-1.98-15.79a1,1,0,0,0-1.723-.537l-13.062,13.8a1.01,1.01,0,0,0-.228,1.007c1.508,4.675,3.2,9.284,5.069,13.7a1.011,1.011,0,0,0,1.7.255l9.987-11.675A1,1,0,0,0,542.1,172.755Z" fill="#51942a"/>
    </g>
    <g id="グループ_57" data-name="グループ 57">
      <path id="パス_82" data-name="パス 82" d="M528.62,188.161l-12.279-2.444a1.01,1.01,0,0,0-.983,1.618c8.34,10.55,17.793,18.072,21.889,17.413a2.8,2.8,0,0,0,.856-.3,97.961,97.961,0,0,1-8.768-15.721A1,1,0,0,0,528.62,188.161Z" fill="#51942a"/>
    </g>
    <g id="グループ_58" data-name="グループ 58">
      <path id="パス_83" data-name="パス 83" d="M515.425,124.227a203.806,203.806,0,0,0,3.6,23.022,1.009,1.009,0,0,0,1.757.437l12.493-14.954a1.019,1.019,0,0,0,.1-1.163c-4.415-7.4-10.524-9.278-17.082-8.425Z" fill="#51942a"/>
    </g>
    <g id="グループ_59" data-name="グループ 59">
      <path id="パス_84" data-name="パス 84" d="M516.706,147.162a206.107,206.107,0,0,1-3.662-23.145.994.994,0,0,0-1.089-.892.965.965,0,0,0-.184.036c-6.02,1.616-10.686,5.678-12.179,14.2a1.016,1.016,0,0,0,.449,1.019l15.138,9.839a1,1,0,0,0,1.527-1.057Z" fill="#51942a"/>
    </g>
  </g>
</svg>
