<svg xmlns="http://www.w3.org/2000/svg" width="226.63" height="141.523" viewBox="0 0 226.63 141.523">
  <g id="グループ_23" data-name="グループ 23" transform="translate(-977.18 -914.173)">
    <g id="グループ_14" data-name="グループ 14">
      <path id="パス_52" data-name="パス 52" d="M1096.669,965.77s-45.9,14.525-54.7,12.526-6.113,1.348-13.082,3.107-8.442-1.445-15.229-.66-7.145,6.226-12.135,8.677-7.643,13.136-.894,13.156,6.184-3.055,15.21-5.132,6.933,2.56,15.754,1.251,3.695-6.937,8.39-8.449,53.494-21.36,57.089-21.376S1096.669,965.77,1096.669,965.77Z" fill="#51942a"/>
    </g>
    <g id="グループ_15" data-name="グループ 15">
      <path id="パス_53" data-name="パス 53" d="M1101.88,964.644s-43.849,3.044-49.7-2.536-11.61-4.8-19.239-6.351-12.319-11.942-16.933-10.493-9.161,2.425-11.813-2.932-15.294-9.022-16.845-1.394-14.453,4.476-8.7,12.358,19.848,6.219,23.809,9.472,3.69,6.495,9.165,8.516,7.439-1.6,14.853,3.187,16.347-1.69,24.905-.795,51.152-5.985,51.152-5.985Z" fill="#51942a"/>
    </g>
    <g id="グループ_16" data-name="グループ 16">
      <path id="パス_54" data-name="パス 54" d="M1091.355,971.171s-33.282,23.2-34.261,30.6-5.568,10.174-10.154,15.706-1.94,15.715-6.1,17.347-7.992,3.563-6.8,8.947-5.768,15.34-11.3,10.755-12.979,5.149-13.406-3.849,10.666-15.962,11.631-20.593-1.111-6.811,1.659-11.43,6.273-3.158,8.828-10.891,12.728-8.248,18.363-13.848,40.233-25.313,40.233-25.313Z" fill="#51942a"/>
    </g>
    <g id="グループ_17" data-name="グループ 17">
      <circle id="楕円形_8" data-name="楕円形 8" cx="40.33" cy="40.33" r="40.33" transform="translate(1084.132 914.173)" fill="#c13e46"/>
    </g>
    <g id="グループ_18" data-name="グループ 18">
      <path id="パス_55" data-name="パス 55" d="M1132.762,915.037s18.291,7.918,33.265,4.24c12.661-3.113,37.783,8.724,37.783,8.724a55.663,55.663,0,0,0-26.037.186c-14.907,3.47-13.43,20.311-13.43,20.311Z" fill="#c13e46"/>
    </g>
    <g id="グループ_22" data-name="グループ 22">
      <path id="パス_59" data-name="パス 59" d="M1115.538,986.583s7.036,12.953,21.562,2.3c15.624-11.455,4.994-14.782-1.964-10.908s-8.606-3.44-14.035-3.243S1112.653,979.264,1115.538,986.583Z" fill="#fff"/>
    </g>
  </g>
</svg>
