<svg xmlns="http://www.w3.org/2000/svg" width="118.62" height="123.507" viewBox="0 0 118.62 123.507">
  <path id="パス_19" data-name="パス 19" d="M861.693,970.522c3.559-6.406,7.514-6.544,10.5-6.761s8.6.753,12.1-1.779S899.848,947,899.848,947s-5.612-9.412-7.472-13.654-.378-11.756-1.511-13.673-10.568-2.677-11.9-2.026-.629,4.627-8.15,3.969c0,0-1.543-10.777-6.316-13.392s-14.643-1.311-18.8-6.9c0,0-7.269-1.4-15.893,15.974,0,0-11.043-3.231-13.584-2.527,0,0-5.7,2.243-8.545,5.274,0,0-23.085-.9-26.042,4.861s11.184,22.961,11.184,22.961a28.22,28.22,0,0,0,2.3,9.994c2.1,4.123,12.623,10.937,12.44,12.674s-9.237,4.709-12.491,7.318-4.384,7.488-10.616,9.9c0,0,1.918,6.477,5.956,8.422s5.28,1.545,7.575,3.72,7.619,7.612,11.915,8.408,13.87,3.124,23.06-4.642a48.093,48.093,0,0,0,3.5,21.138s16.045-6.372,19.679-6.083,7.937,1.075,11.682-.955,10.458-10.652,10.458-10.652-3.732-7.24-1.516-13.26,1.306-14.222-3.052-16.426S859.562,974.36,861.693,970.522Z" transform="translate(-781.228 -901.295)" fill="#82a63b"/>
</svg>
