<svg xmlns="http://www.w3.org/2000/svg" xmlns:xlink="http://www.w3.org/1999/xlink" width="62.78" height="62.045" viewBox="0 0 62.78 62.045">
  <defs>
    <clipPath id="clip-path">
      <path id="パス_35" data-name="パス 35" d="M682.445,223.005c5.346,4.94,11.6,9.391,9.975,17.607-1.324,6.679-8.594,17.713-14.181,23.756-3.612,3.91-8.5,6.246-12.7,8.435-7.23,3.766-13.215,6.38-19.483,4.506a28.6,28.6,0,0,1-8.721-5.5,25.471,25.471,0,0,1-7.049-22.372c1.319-6.688,8.088-10.693,13.682-16.746,6.985-7.557,13.212-15.828,21.227-16.719C671.472,215.27,678.192,219.071,682.445,223.005Z" fill="none"/>
    </clipPath>
  </defs>
  <g id="グループ_121" data-name="グループ 121" transform="translate(-629.903 -215.885)">
    <g id="グループ_107" data-name="グループ 107">
      <path id="パス_124" data-name="パス 124" d="M682.445,223.005c5.346,4.94,11.6,9.391,9.975,17.607-1.324,6.679-8.594,17.713-14.181,23.756-3.612,3.91-8.5,6.246-12.7,8.435-7.23,3.766-13.215,6.38-19.483,4.506a28.6,28.6,0,0,1-8.721-5.5,25.471,25.471,0,0,1-7.049-22.372c1.319-6.688,8.088-10.693,13.682-16.746,6.985-7.557,13.212-15.828,21.227-16.719C671.472,215.27,678.192,219.071,682.445,223.005Z" fill="#cfb669"/>
      <g id="グループ_49" data-name="グループ 49">
        <g id="グループ_48" data-name="グループ 48" clip-path="url(#clip-path)">
          <g id="グループ_106" data-name="グループ 106">
            <g id="グループ_105" data-name="グループ 105">
              <ellipse id="楕円形_22" data-name="楕円形 22" cx="37.129" cy="22.737" rx="37.129" ry="22.737" transform="translate(615.412 234.743) rotate(-25.755)" fill="#dcc577"/>
            </g>
          </g>
        </g>
      </g>
    </g>
    <g id="グループ_108" data-name="グループ 108">
      <path id="パス_126" data-name="パス 126" d="M636.179,253.015c1.189.962,1.8,2.166,1.38,2.7s-1.738.179-2.929-.782-1.806-2.165-1.379-2.7S634.99,252.059,636.179,253.015Z" fill="#fff"/>
    </g>
    <g id="グループ_109" data-name="グループ 109">
      <path id="パス_127" data-name="パス 127" d="M649.126,253.956c1.189.959,1.808,2.165,1.38,2.7s-1.738.179-2.929-.78-1.805-2.165-1.377-2.7S647.937,252.994,649.126,253.956Z" fill="#fff"/>
    </g>
    <g id="グループ_110" data-name="グループ 110">
      <path id="パス_128" data-name="パス 128" d="M648.255,240.981c1.189.961,1.8,2.165,1.377,2.7s-1.737.179-2.929-.781-1.8-2.166-1.377-2.7S647.066,240.028,648.255,240.981Z" fill="#fff"/>
    </g>
    <g id="グループ_111" data-name="グループ 111">
      <path id="パス_129" data-name="パス 129" d="M659.527,260.608c1.189.962,1.808,2.165,1.38,2.7s-1.738.18-2.929-.781-1.805-2.165-1.376-2.7S658.338,259.644,659.527,260.608Z" fill="#fff"/>
    </g>
    <g id="グループ_112" data-name="グループ 112">
      <path id="パス_130" data-name="パス 130" d="M663.306,248.313c1.189.959,1.8,2.165,1.378,2.7s-1.738.179-2.928-.78-1.807-2.166-1.379-2.7S662.112,247.346,663.306,248.313Z" fill="#fff"/>
    </g>
    <g id="グループ_113" data-name="グループ 113">
      <path id="パス_131" data-name="パス 131" d="M660.379,238.505c1.189.959,1.807,2.165,1.379,2.7s-1.738.179-2.928-.78-1.8-2.165-1.38-2.7S659.19,237.539,660.379,238.505Z" fill="#fff"/>
    </g>
    <g id="グループ_114" data-name="グループ 114">
      <path id="パス_132" data-name="パス 132" d="M662.282,223.216c1.189.962,1.807,2.166,1.379,2.7s-1.738.179-2.928-.782-1.8-2.165-1.38-2.7S661.093,222.255,662.282,223.216Z" fill="#ccb05b"/>
    </g>
    <g id="グループ_115" data-name="グループ 115">
      <path id="パス_133" data-name="パス 133" d="M651.116,233.63s-1.116-9.487,13.61-13.748c10.021-2.9,14.621,4.02,13.983,6.423s-10.654-4.093-13.852-.178S653.933,241.327,651.116,233.63Z" fill="#dcc577"/>
    </g>
    <g id="グループ_116" data-name="グループ 116">
      <path id="パス_134" data-name="パス 134" d="M672.565,233.208c1.189.962,1.8,2.166,1.377,2.7s-1.737.179-2.929-.782-1.807-2.165-1.379-2.7S671.381,232.248,672.565,233.208Z" fill="#fff"/>
    </g>
    <g id="グループ_117" data-name="グループ 117">
      <path id="パス_135" data-name="パス 135" d="M674.293,256.651c1.625,1.314,2.633,2.762,2.253,3.233s-2.011-.206-3.637-1.52-2.633-2.762-2.25-3.233S672.667,255.338,674.293,256.651Z" fill="#fff"/>
    </g>
    <g id="グループ_118" data-name="グループ 118">
      <path id="パス_136" data-name="パス 136" d="M644.691,265.394c1.625,1.312,2.632,2.763,2.25,3.235s-2.011-.207-3.636-1.521-2.633-2.76-2.251-3.235S643.064,264.081,644.691,265.394Z" fill="#fff"/>
    </g>
    <g id="グループ_119" data-name="グループ 119">
      <path id="パス_137" data-name="パス 137" d="M684.1,244.567c1.625,1.315,2.633,2.763,2.253,3.235s-2.011-.207-3.637-1.521-2.633-2.76-2.25-3.235S682.475,243.251,684.1,244.567Z" fill="#fff"/>
    </g>
    <g id="グループ_120" data-name="グループ 120">
      <path id="パス_138" data-name="パス 138" d="M684.9,232.415c1.626,1.312,2.634,2.762,2.251,3.235s-2.01-.207-3.635-1.522-2.634-2.76-2.253-3.235S683.271,231.1,684.9,232.415Z" fill="#fff"/>
    </g>
  </g>
</svg>
