<svg xmlns="http://www.w3.org/2000/svg" width="159.369" height="118.564" viewBox="0 0 159.369 118.564">
  <g id="グループ_1" data-name="グループ 1" transform="translate(-826.317 14.578)">
    <path id="パス_1" data-name="パス 1" d="M945.679,89.569c5.381-10.717-2.589-21.862-6.782-26.651-3.551,6.4-10.909,11.933-24.419,15.427-22.947,5.934-58.524,13.055-74.861,4.01-1.756,2.826-2.549,7.249,2.033,13.356C850.875,108,936.87,107.121,945.679,89.569Z" fill="#eb9a21"/>
    <path id="パス_2" data-name="パス 2" d="M917.365,9.97a23.545,23.545,0,0,1,7.453,2.31c-.154-6.3-1.43-14.643-6.417-20.442-9-10.458-30.1-7.9-52.59,6S820.3,35.075,827.745,47.568c1.359,2.281,2.593,4.144,3.7,5.679C842.1,29.568,895.133,6.765,917.365,9.97Z" fill="#eb9a21"/>
    <path id="パス_3" data-name="パス 3" d="M913.74,74.7c13.51-3.494,20.869-9.034,24.419-15.427,3.974-7.151,3.188-15.376.9-23.023-2.565-8.567-5.732-16.654-13.567-20.673a23.542,23.542,0,0,0-7.452-2.311c-22.238-3.2-75.259,19.6-85.91,43.276a18.009,18.009,0,0,0-1.371,12.248,15.843,15.843,0,0,0,8.123,9.919C855.216,87.759,890.793,80.638,913.74,74.7Z" fill="#eb9a21"/>
    <path id="パス_4" data-name="パス 4" d="M936.818,29.631s3.945,9.6,3.984,15.16c0,0,11.156-7.432,23.774-3.359S979.4,54,979.4,54l2.621.6s.929-7.313,3.662-9.586l-.526-2.6S971.029,31.04,955.9,30.173C951.18,29.9,941.016,31.247,936.818,29.631Z" fill="#8ec020"/>
  </g>
</svg>
