<svg xmlns="http://www.w3.org/2000/svg" width="126.555" height="124.468" viewBox="0 0 126.555 124.468">
  <g id="グループ_2" data-name="グループ 2" transform="translate(-1198.912 -58.432)">
    <path id="パス_5" data-name="パス 5" d="M1244.809,106.188c9.75-7.833,41.708-39.8,67.064-6.123s10.631,62.718-6.851,72.637-70.613,25.106-83.061-24.655C1218.123,132.711,1236.263,113.051,1244.809,106.188Z" fill="#eb9a21"/>
    <path id="パス_6" data-name="パス 6" d="M1242.8,106.1s12.657-16.228-9.449-47.671c0,0,4.778,14.1,3.086,23.454S1242.8,106.1,1242.8,106.1Z" fill="#8ec020"/>
    <path id="パス_7" data-name="パス 7" d="M1265.2,63.39s-.858,7.692-11.509,15.544c-8.68,6.4-11.229,21.623-10.894,27.171C1242.8,106.1,1267.111,86.578,1265.2,63.39Z" fill="#8ec020"/>
    <path id="パス_8" data-name="パス 8" d="M1198.912,116.635s6.2-14.46,20.45-14.972c11.778-.425,11.135,5.111,23.441,4.44,0,0-11.51,10.716-28.8,4.347C1209.231,108.693,1198.912,116.635,1198.912,116.635Z" fill="#8ec020"/>
    <path id="パス_9" data-name="パス 9" d="M1217.594,88.3l2.435-8.741s1.087-2.568,3.128.879c0,0,16.885,11.922,22.348,23.272l-2.7,2.395S1229.73,90.43,1221.61,88.468C1221.609,88.467,1218.222,92.4,1217.594,88.3Z" fill="#8ec020"/>
  </g>
</svg>
