<svg xmlns="http://www.w3.org/2000/svg" width="54.343" height="117.008" viewBox="0 0 54.343 117.008">
  <path id="パス_160" data-name="パス 160" d="M1489.009,441.936s9.525-21.458,13.961-24.354,22.938-13.165,21.616-19.269-2.09-2.442-3.1-5.944,11.257-10.448,10.024-14.258-3.565-2.506-4.328-3.821,1.774-6.088,5.107-9.8,6.089-10.076,3.968-11.309-3.788,4.06-5.758,2.715,3.666-11.077,6.425-16.494,5.89-11.586,1.383-14.084-8.48,7.865-9.332,10.173-2.849,14.962-5.037,15.2-3.071-8.094-5.636-8.041-3.353,6.814-2.621,9.337,1.85,12.1-.409,12.872-3.4-6.659-6.341-5.848-4.259,6.556-3.9,9.836,2.359,15.269-.65,16.608-3.425-4.506-7.458-3.575-4.742,8.106-4.381,11.386,4.119,19.145,3.35,22.812-9.657,24.4-9.657,24.4Z" transform="translate(-1486.241 -324.928)" fill="#8ec020"/>
</svg>
