<svg xmlns="http://www.w3.org/2000/svg" width="173.491" height="190.737" viewBox="0 0 173.491 190.737">
  <g id="グループ_42" data-name="グループ 42" transform="translate(-491.978 -670.515)">
    <path id="パス_67" data-name="パス 67" d="M622.829,780.8c-4.228-1.079-10.049-2.115-16.308-3.06-18.259-4.985-21.54-18.734-21.54-18.734s-.282,6.813-.464,15.906c-9.041-1.013-15.83-1.628-15.83-1.628s11.4,5.624,15.752,24.161c.114,6.2.379,11.969.887,16.222,1.931,16.274,7.207,38.779,26.828,45.892,11.7,4.242,22.711-.307,29.694-4.673h0l5.02,5.731-2.323-7.533c1.214-.868,2.229-1.67,3.015-2.327l5.391,4.529-2.672-6.9c.589-.5,1.481-1.3,2.547-2.358l6,4.11-3.719-6.53q.987-1.111,2.019-2.419h0l5.785,3.553-3.83-6.24h-.008c4.282-6.327,7.93-15.082,5.737-25.083C660.328,793.033,638.71,784.851,622.829,780.8Z" fill="#e9981f"/>
    <path id="パス_68" data-name="パス 68" d="M524.567,681.693s9.819,16.938,22.1,37.771c-15.2-17.143-32.95-34.623-52.276-48.949a595.334,595.334,0,0,0,62.7,79.845c-29.569-23.584-65.119-51-65.119-51,43.278,55.974,74.342,73.32,89.954,78.688,1.772.608,3.347,1.065,4.711,1.4a38.319,38.319,0,0,0,3.914.765c-.205-.944-.44-1.935-.713-2.983-.268-1.018-.575-2.094-.918-3.214C583.462,756.114,567.9,725.4,524.567,681.693Z" fill="#8ec020"/>
  </g>
</svg>
