<svg xmlns="http://www.w3.org/2000/svg" width="27.414" height="55.739" viewBox="0 0 27.414 55.739">
  <g id="グループ_86" data-name="グループ 86" transform="translate(-722.087 -821.917)">
    <g id="グループ_78" data-name="グループ 78">
      <path id="パス_100" data-name="パス 100" d="M734.163,841.6l-.031.031-10.668-8.109a.673.673,0,0,0-1.075.44,38.59,38.59,0,0,0-.108,8.687,27.859,27.859,0,0,0,.636,3.914.679.679,0,0,0,.4.474l11.735,4.866a.67.67,0,0,0,.909-.764C735.242,847.939,734.644,844.734,734.163,841.6Z" fill="#51942a"/>
    </g>
    <g id="グループ_79" data-name="グループ 79">
      <path id="パス_101" data-name="パス 101" d="M741.662,866.933a66.351,66.351,0,0,0,4.487,9.821.675.675,0,0,0,1.155.02c1.713-2.714,2.25-9.215,2.193-16.667a.674.674,0,0,0-1.146-.473l-6.531,6.587A.678.678,0,0,0,741.662,866.933Z" fill="#51942a"/>
    </g>
    <g id="グループ_80" data-name="グループ 80">
      <path id="パス_102" data-name="パス 102" d="M738.615,851.752l9.731-8.867a.673.673,0,0,0,.218-.554q-.057-.695-.115-1.378a36.73,36.73,0,0,0-1.879-9.386.675.675,0,0,0-1.119-.238l-9.573,9.88a.671.671,0,0,0-.182.57c.485,3.159,1.084,6.4,1.806,9.624a.676.676,0,0,0,.811.507A.666.666,0,0,0,738.615,851.752Z" fill="#51942a"/>
    </g>
    <g id="グループ_81" data-name="グループ 81">
      <path id="パス_103" data-name="パス 103" d="M736.226,854.093l-11.622-4.82a.673.673,0,0,0-.891.833,53.146,53.146,0,0,0,5.366,11.522.679.679,0,0,0,.4.3L738.4,864.4a.666.666,0,0,0,.811-.86c-.979-2.915-1.838-5.935-2.583-8.986A.67.67,0,0,0,736.226,854.093Z" fill="#51942a"/>
    </g>
    <g id="グループ_82" data-name="グループ 82">
      <path id="パス_104" data-name="パス 104" d="M749.391,856.532c-.089-3.514-.291-7.15-.544-10.634a.673.673,0,0,0-1.125-.445l-9.394,8.561a.68.68,0,0,0-.2.66c.776,3.2,1.675,6.356,2.708,9.4a.676.676,0,0,0,1.119.255l7.241-7.3A.67.67,0,0,0,749.391,856.532Z" fill="#51942a"/>
    </g>
    <g id="グループ_83" data-name="グループ 83">
      <path id="パス_105" data-name="パス 105" d="M739.639,866.151l-8.076-2.234a.675.675,0,0,0-.737,1.03c5.048,7.453,10.988,12.94,13.749,12.7a1.836,1.836,0,0,0,.586-.16,65.52,65.52,0,0,1-5.079-10.921A.669.669,0,0,0,739.639,866.151Z" fill="#51942a"/>
    </g>
    <g id="グループ_84" data-name="グループ 84">
      <path id="パス_106" data-name="パス 106" d="M733.979,822.824a136.4,136.4,0,0,0,1.269,15.545.674.674,0,0,0,1.146.382l9.077-9.366a.68.68,0,0,0,.127-.772,10.7,10.7,0,0,0-10.986-6.465Z" fill="#51942a"/>
    </g>
    <g id="グループ_85" data-name="グループ 85">
      <path id="パス_107" data-name="パス 107" d="M733.7,838.2a137.915,137.915,0,0,1-1.3-15.63.666.666,0,0,0-.682-.652.657.657,0,0,0-.125.015c-4.1.783-7.413,3.264-8.828,8.88a.679.679,0,0,0,.248.7l9.622,7.313a.672.672,0,0,0,1.069-.629Z" fill="#51942a"/>
    </g>
  </g>
</svg>
