<svg xmlns="http://www.w3.org/2000/svg" width="47.747" height="80.304" viewBox="0 0 47.747 80.304">
  <g id="グループ_104" data-name="グループ 104" transform="translate(-1340.258 -570.013)">
    <g id="グループ_96" data-name="グループ 96">
      <path id="パス_116" data-name="パス 116" d="M1359.513,599.331l-.035.052L1341.9,589.8a1.007,1.007,0,0,0-1.49.891,57.816,57.816,0,0,0,1.8,12.861,41.444,41.444,0,0,0,1.82,5.639,1.021,1.021,0,0,0,.7.61l18.428,4.548a1,1,0,0,0,1.169-1.34C1362.539,608.441,1360.936,603.84,1359.513,599.331Z" fill="#51942a"/>
    </g>
    <g id="グループ_97" data-name="グループ 97">
      <path id="パス_117" data-name="パス 117" d="M1376.3,635.051a98.851,98.851,0,0,0,8.834,13.5,1.011,1.011,0,0,0,1.42.154,1.024,1.024,0,0,0,.293-.384c1.918-4.395,1.251-14.119-.5-25.112a1.005,1.005,0,0,0-1.805-.437l-8.165,11.2A1.017,1.017,0,0,0,1376.3,635.051Z" fill="#51942a"/>
    </g>
    <g id="グループ_98" data-name="グループ 98">
      <path id="パス_118" data-name="パス 118" d="M1368.38,613.318l12.378-15.285a1.021,1.021,0,0,0,.2-.87q-.24-1.019-.481-2.007a54.816,54.816,0,0,0-4.887-13.44,1.006,1.006,0,0,0-1.706-.1l-11.918,16.746a1.01,1.01,0,0,0-.14.891c1.426,4.557,3.038,9.2,4.834,13.809a1.012,1.012,0,0,0,1.721.259Z" fill="#51942a"/>
    </g>
    <g id="グループ_99" data-name="グループ 99">
      <path id="パス_119" data-name="パス 119" d="M1365.38,617.308l-18.251-4.506a1.007,1.007,0,0,0-1.137,1.431,79.4,79.4,0,0,0,10.518,15.812,1.013,1.013,0,0,0,.656.353l13.731,1.64a1,1,0,0,0,1-1.452c-2.1-4.084-4.05-8.353-5.84-12.692A.991.991,0,0,0,1365.38,617.308Z" fill="#51942a"/>
    </g>
    <g id="グループ_100" data-name="グループ 100">
      <path id="パス_120" data-name="パス 120" d="M1385.373,617.948c-.925-5.17-2.034-10.493-3.2-15.583a1,1,0,0,0-1.761-.4l-11.952,14.758a1.011,1.011,0,0,0-.15,1.019c1.865,4.546,3.905,9.009,6.108,13.269a1.019,1.019,0,0,0,1.711.128l9.055-12.414A1.009,1.009,0,0,0,1385.373,617.948Z" fill="#51942a"/>
    </g>
    <g id="グループ_101" data-name="グループ 101">
      <path id="パス_121" data-name="パス 121" d="M1373.131,634.352l-12.431-1.484a1.008,1.008,0,0,0-.855,1.688c9.13,9.874,19.137,16.64,23.17,15.669a2.874,2.874,0,0,0,.831-.367,97.974,97.974,0,0,1-9.959-14.991A1,1,0,0,0,1373.131,634.352Z" fill="#51942a"/>
    </g>
    <g id="グループ_102" data-name="グループ 102">
      <path id="パス_122" data-name="パス 122" d="M1355.027,571.634A203.914,203.914,0,0,0,1360.4,594.3a1.009,1.009,0,0,0,1.783.3l11.3-15.877a1.018,1.018,0,0,0,0-1.166c-4.976-7.039-11.2-8.436-17.682-7.078C1355.509,570.921,1355.323,571.2,1355.027,571.634Z" fill="#51942a"/>
    </g>
    <g id="グループ_103" data-name="グループ 103">
      <path id="パス_123" data-name="パス 123" d="M1358.08,594.4a205.354,205.354,0,0,1-5.441-22.794,1,1,0,0,0-1.159-.8.981.981,0,0,0-.176.049c-5.875,2.076-10.215,6.491-11.042,15.1a1.016,1.016,0,0,0,.524.982l15.856,8.639a1,1,0,0,0,1.438-1.171Z" fill="#51942a"/>
    </g>
  </g>
</svg>
