<svg xmlns="http://www.w3.org/2000/svg" width="50.742" height="119.71" viewBox="0 0 50.742 119.71">
  <g id="グループ_143" data-name="グループ 143" transform="translate(-1345.005 -74.256)">
    <g id="グループ_142" data-name="グループ 142">
      <path id="パス_156" data-name="パス 156" d="M1368.1,145.936l-.115.023c-.052-.255-.079-.471-.127-.718a294.915,294.915,0,0,1-13.017-55.2l1.31-.195a307.842,307.842,0,0,0,10.492,47.54c-1.19-11.078.593-19.227,5.694-26.183l1.068.781c-5.979,8.159-7.249,18.054-4.265,32.9a219.508,219.508,0,0,0,9.683,23.28c-2.879-13.55-1.429-23.769,4.48-31.839l1.069.78c-6.431,8.785-7.359,20.3-2.92,36.236a220.265,220.265,0,0,0,12.073,20.3c.231-1.03,7.345-33.528-5.168-65.134a196.079,196.079,0,0,0-32.888-54.253s-21.5,21.347-2.867,68.4c11.975,30.239,31.275,51.323,39.5,51.306A218.443,218.443,0,0,1,1368.1,145.936Z" fill="#51942a"/>
    </g>
  </g>
</svg>
