<svg xmlns="http://www.w3.org/2000/svg" width="178.261" height="155.094" viewBox="0 0 178.261 155.094">
  <g id="グループ_3" data-name="グループ 3" transform="translate(-1238.605 -726.25)">
    <path id="パス_10" data-name="パス 10" d="M1386.985,846.622c.263-.509.456-1.124.727-1.782a10.914,10.914,0,0,0,.727-2.207,18.615,18.615,0,0,0,.473-2.682c0-.491.013-.995.019-1.516,0-.262.012-.527,0-.794l-.144-.808q-.153-.82-.31-1.686-.326-.823-.667-1.686a7.359,7.359,0,0,0-.923-1.655,6.952,6.952,0,0,0-1.219-1.579,12.364,12.364,0,0,0-5.379-3.465c-.1-.69-.19-1.374-.245-2.054a19.3,19.3,0,0,1,.323-6.016,21.5,21.5,0,0,1,1.845-5.152,20.309,20.309,0,0,0,4.625,4.374,12.52,12.52,0,0,0,7.766,2.379,9.312,9.312,0,0,0,3.971-1.287,7.822,7.822,0,0,0,3.1-3.279,6.981,6.981,0,0,0,.511-4.435,8.652,8.652,0,0,0-1.872-3.821,6.635,6.635,0,0,0-3.819-2.346,28.671,28.671,0,0,0-3.638-.4,14.442,14.442,0,0,0-7.408,1.488,12.177,12.177,0,0,0-2.626,1.88,15.771,15.771,0,0,1-1.212-3.656l-.188-1.6c-.022-.509.019-.982.007-1.476a12.647,12.647,0,0,1,.255-1.733l.08-.449h0l.022-.075.061-.211.242-.839c.237-.845.51-1.676.812-2.5a31.485,31.485,0,0,0,4.861,2.46l1.561.619c.531.177,1.073.314,1.613.473a26.779,26.779,0,0,0,3.276.822l1.671.3.837.152.421.075c-.079-.008.23.029.23.029l.1.008.2.016,1.626.128c.53.053,1.257-.012,1.88-.022a18.15,18.15,0,0,0,7.3-1.885,16.088,16.088,0,0,0,5.834-5.092,13.922,13.922,0,0,0,2.539-7.554,12.379,12.379,0,0,0-.553-4.1l-.325-1c.044.089-.111-.255-.111-.255l-.049-.1-.1-.2-.2-.391a13.179,13.179,0,0,0-.764-1.1c-.254-.281-.509-.567-.785-.83a13.87,13.87,0,0,0-7.531-3.2,21.458,21.458,0,0,0-7.809.47,24.975,24.975,0,0,0-13.034,8.146,31.5,31.5,0,0,0-3.788,5.6c-.553-.481-1.1-.965-1.6-1.484a29.786,29.786,0,0,1-5.786-8.747,52.208,52.208,0,0,1-3.864-18.508,92.467,92.467,0,0,1,.65-14.913c.393-3.258.856-5.923,1.264-7.981,2.587,37.681,34.025,16.554,34.025,16.554-26.748,6.848-33.816-25.364-33.816-25.364l-7.939-.342c-.157,1.728-.487,4.356-.94,7.513a100.062,100.062,0,0,1-19.018,25.742c11.327-23.257-11.222-35.356-11.222-35.356-8.636,23.313,5.16,34.854,8.9,37.464a60.93,60.93,0,0,1-12.762,8.655c1.632-5.444,5.262-25.529-27.478-31.874,0,0-.206,24.634,25.527,32.8a46.615,46.615,0,0,1-17.963,4.128c-1.25-4.136-8.288-19.778-41.678-9.989,0,0,21.367,34.5,41.133,11.845a47.656,47.656,0,0,0,16.071-3.022c-7.592,5.184-23.561,17.839-23.112,32.325,0,0,24.39-7.068,26.93-33.922a59.519,59.519,0,0,0,11.161-6.812c-4.45,5.49-11.892,16.168-9.251,23.454,0,0,21.83-17.648,12.882-26.468a97.413,97.413,0,0,0,19.1-23.817c-1.957,12.3-5.19,28.831-8.243,36.086-4.411,10.477-53.672,64.34-69.179,77.174s-28.234,6.512-47,22.248c13.228-.021,40.732,7.254,56.058,3.963s60.045-51.777,70.113-75.526c3.462-8.164,2.042-16.82-.7-28.165-1.088-4.509-.01-12.394,1.685-20.261,0,1.311.018,2.653.08,4.051a67.636,67.636,0,0,0,1.131,9.7,46.6,46.6,0,0,0,3.211,10.483,34.415,34.415,0,0,0,6.737,10.072,29.916,29.916,0,0,0,2.928,2.593q-.678,1.8-1.173,3.649l-.255.914-.062.228-.032.115-.049.254-.072.45a14.875,14.875,0,0,0-.256,1.868c-.014.718-.052,1.465-.009,2.164l.263,2.015a19.613,19.613,0,0,0,2.255,5.858c-.107.17-.234.333-.332.509a23.512,23.512,0,0,0-2.421,6.586,21.913,21.913,0,0,0-.314,6.921c.041.415.1.819.152,1.221a13.252,13.252,0,0,0-9.258,2.524l-.985.776-.246.2-.127.1-.062.05a1.036,1.036,0,0,0-.138.127l-.467.539a10.047,10.047,0,0,0-1.6,2.418,8.9,8.9,0,0,0-.5,6,7.062,7.062,0,0,0,4.257,4.84,5.9,5.9,0,0,0,1.738.348,10.783,10.783,0,0,0,1.756-.159c.542-.173,1.078-.382,1.617-.58.5-.285,1-.6,1.49-.916a13.068,13.068,0,0,0,1.164-.975c.218-.2.3-.255.625-.567l.53-.6a16.084,16.084,0,0,0,1.958-2.619,11.585,11.585,0,0,0,1.495-6.631c-.043-.774-.126-1.528-.226-2.259a11.79,11.79,0,0,1,3.983,2.505,5.745,5.745,0,0,1,1.145,1.323,6.164,6.164,0,0,1,.908,1.425l.691,1.475q.188.778.366,1.515a17.636,17.636,0,0,1-1.021,9.44c-.933,2.072-1.431,3.183-1.431,3.183S1385.832,848.6,1386.985,846.622Zm12.548-67.462a17.517,17.517,0,0,1,6.367-.321,10.008,10.008,0,0,1,5.3,2.229l.417.45a2.469,2.469,0,0,0,.255.331l.195.393.1.2h0c0-.009,0,0,.017.041l.2.672a8.255,8.255,0,0,1,.34,2.764,9.743,9.743,0,0,1-1.865,5.292,11.8,11.8,0,0,1-4.312,3.673,13.885,13.885,0,0,1-5.476,1.344,12.331,12.331,0,0,1-1.4.018l-1.624-.145-.2-.018h-.03c.007,0,0,0-.041-.007l-.382-.076-.752-.146-1.5-.29a23.249,23.249,0,0,1-2.9-.764c-.473-.144-.955-.269-1.418-.429l-1.35-.561a28.561,28.561,0,0,1-4.71-2.472,28,28,0,0,1,3.656-5.369,21.14,21.14,0,0,1,11.12-6.806Zm-6.807,28.524a25.949,25.949,0,0,1,3.275.4,3.732,3.732,0,0,1,1.978,1.339,4.682,4.682,0,0,1,.872,4.939,4.851,4.851,0,0,1-1.729,1.81,6.073,6.073,0,0,1-2.762.9,9.387,9.387,0,0,1-5.676-1.9,17.448,17.448,0,0,1-4.419-4.534,9.6,9.6,0,0,1,2.514-1.861A11.543,11.543,0,0,1,1392.726,807.684Zm-14.51,23.507a8.977,8.977,0,0,1-1.1,5.25,13.887,13.887,0,0,1-1.628,2.22l-.455.527-.477.435a11.611,11.611,0,0,1-1.087.932l-1.006.624-1.113.417a11.109,11.109,0,0,1-1.106.11,3.457,3.457,0,0,1-1.046-.2,4.72,4.72,0,0,1-2.816-3.22,6.606,6.606,0,0,1,.332-4.462,7.759,7.759,0,0,1,1.222-1.877l.358-.432c-.013.008.033-.036.028-.035h0l.127-.1.241-.2.959-.807a11.241,11.241,0,0,1,8.076-2.3.94.94,0,0,1,.106.021C1378,829.164,1378.158,830.2,1378.216,831.191Z" fill="#82a63b"/>
    <path id="パス_11" data-name="パス 11" d="M1359.7,808.285a9.2,9.2,0,1,1-1.286-12.941h0A9.2,9.2,0,0,1,1359.7,808.285Z" fill="#82a63b"/>
    <path id="パス_12" data-name="パス 12" d="M1345.59,825.5a9.195,9.195,0,1,1-1.284-12.94,9.2,9.2,0,0,1,1.284,12.94Z" fill="#82a63b"/>
    <path id="パス_13" data-name="パス 13" d="M1331.343,842.885a9.2,9.2,0,1,1-1.283-12.942,9.2,9.2,0,0,1,1.283,12.942Z" fill="#82a63b"/>
    <path id="パス_14" data-name="パス 14" d="M1315.225,859.327a9.195,9.195,0,1,1-1.288-12.941,9.2,9.2,0,0,1,1.288,12.941Z" fill="#82a63b"/>
    <path id="パス_15" data-name="パス 15" d="M1297.162,872.413a9.2,9.2,0,1,1-1.284-12.942,9.2,9.2,0,0,1,1.284,12.942Z" fill="#82a63b"/>
  </g>
</svg>
