<svg xmlns="http://www.w3.org/2000/svg" xmlns:xlink="http://www.w3.org/1999/xlink" width="62.78" height="62.045" viewBox="0 0 62.78 62.045">
  <defs>
    <clipPath id="clip-path">
      <path id="パス_37" data-name="パス 37" d="M1253.949,978.452c5.347,4.94,11.6,9.39,9.976,17.607-1.325,6.679-8.6,17.713-14.182,23.756-3.612,3.91-8.5,6.246-12.7,8.435-7.229,3.766-13.215,6.38-19.483,4.506a28.608,28.608,0,0,1-8.721-5.5,25.474,25.474,0,0,1-7.049-22.372c1.32-6.688,8.089-10.693,13.683-16.747,6.985-7.556,13.211-15.827,21.227-16.718C1242.976,970.716,1249.7,974.518,1253.949,978.452Z" fill="none"/>
    </clipPath>
  </defs>
  <g id="グループ_121" data-name="グループ 121" transform="translate(-1201.407 -971.332)">
    <g id="グループ_107" data-name="グループ 107">
      <path id="パス_124" data-name="パス 124" d="M1253.949,978.452c5.347,4.94,11.6,9.39,9.976,17.607-1.325,6.679-8.6,17.713-14.182,23.756-3.612,3.91-8.5,6.246-12.7,8.435-7.229,3.766-13.215,6.38-19.483,4.506a28.608,28.608,0,0,1-8.721-5.5,25.474,25.474,0,0,1-7.049-22.372c1.32-6.688,8.089-10.693,13.683-16.747,6.985-7.556,13.211-15.827,21.227-16.718C1242.976,970.716,1249.7,974.518,1253.949,978.452Z" fill="#cfb669"/>
      <g id="グループ_55" data-name="グループ 55">
        <g id="グループ_54" data-name="グループ 54" clip-path="url(#clip-path)">
          <g id="グループ_106" data-name="グループ 106">
            <g id="グループ_105" data-name="グループ 105">
              <ellipse id="楕円形_22" data-name="楕円形 22" cx="37.129" cy="22.737" rx="37.129" ry="22.737" transform="translate(1186.917 990.189) rotate(-25.755)" fill="#dcc577"/>
            </g>
          </g>
        </g>
      </g>
    </g>
    <g id="グループ_108" data-name="グループ 108">
      <path id="パス_126" data-name="パス 126" d="M1207.683,1008.462c1.19.962,1.805,2.165,1.38,2.7s-1.738.18-2.928-.781-1.807-2.165-1.38-2.7S1206.495,1007.506,1207.683,1008.462Z" fill="#fff"/>
    </g>
    <g id="グループ_109" data-name="グループ 109">
      <path id="パス_127" data-name="パス 127" d="M1220.63,1009.4c1.189.959,1.808,2.165,1.38,2.7s-1.738.179-2.928-.78-1.805-2.165-1.377-2.7S1219.441,1008.441,1220.63,1009.4Z" fill="#fff"/>
    </g>
    <g id="グループ_110" data-name="グループ 110">
      <path id="パス_128" data-name="パス 128" d="M1219.759,996.427c1.189.962,1.8,2.166,1.377,2.7s-1.737.179-2.928-.782-1.805-2.165-1.377-2.7S1218.57,995.475,1219.759,996.427Z" fill="#fff"/>
    </g>
    <g id="グループ_111" data-name="グループ 111">
      <path id="パス_129" data-name="パス 129" d="M1231.032,1016.055c1.189.962,1.807,2.165,1.379,2.7s-1.738.179-2.928-.781-1.805-2.165-1.377-2.7S1229.843,1015.091,1231.032,1016.055Z" fill="#fff"/>
    </g>
    <g id="グループ_112" data-name="グループ 112">
      <path id="パス_130" data-name="パス 130" d="M1234.811,1003.76c1.189.959,1.8,2.165,1.378,2.7s-1.738.179-2.929-.781-1.807-2.165-1.379-2.7S1233.616,1002.793,1234.811,1003.76Z" fill="#fff"/>
    </g>
    <g id="グループ_113" data-name="グループ 113">
      <path id="パス_131" data-name="パス 131" d="M1231.883,993.952c1.189.959,1.808,2.165,1.38,2.7s-1.738.179-2.929-.78-1.8-2.166-1.379-2.7S1230.694,992.986,1231.883,993.952Z" fill="#fff"/>
    </g>
    <g id="グループ_114" data-name="グループ 114">
      <path id="パス_132" data-name="パス 132" d="M1233.786,978.663c1.189.962,1.807,2.165,1.379,2.7s-1.738.179-2.928-.782-1.805-2.165-1.38-2.7S1232.6,977.7,1233.786,978.663Z" fill="#ccb05b"/>
    </g>
    <g id="グループ_115" data-name="グループ 115">
      <path id="パス_133" data-name="パス 133" d="M1222.62,989.077s-1.116-9.488,13.61-13.748c10.021-2.9,14.621,4.02,13.983,6.423s-10.654-4.093-13.852-.178S1225.437,996.774,1222.62,989.077Z" fill="#dcc577"/>
    </g>
    <g id="グループ_116" data-name="グループ 116">
      <path id="パス_134" data-name="パス 134" d="M1244.069,988.655c1.189.962,1.805,2.165,1.377,2.7s-1.737.179-2.928-.782-1.808-2.165-1.38-2.7S1242.885,987.7,1244.069,988.655Z" fill="#fff"/>
    </g>
    <g id="グループ_117" data-name="グループ 117">
      <path id="パス_135" data-name="パス 135" d="M1245.8,1012.1c1.626,1.314,2.634,2.762,2.253,3.233s-2.011-.206-3.636-1.52-2.634-2.762-2.251-3.233S1244.171,1010.784,1245.8,1012.1Z" fill="#fff"/>
    </g>
    <g id="グループ_118" data-name="グループ 118">
      <path id="パス_136" data-name="パス 136" d="M1216.195,1020.841c1.626,1.312,2.632,2.763,2.25,3.235s-2.01-.207-3.636-1.521-2.632-2.76-2.25-3.235S1214.568,1019.528,1216.195,1020.841Z" fill="#fff"/>
    </g>
    <g id="グループ_119" data-name="グループ 119">
      <path id="パス_137" data-name="パス 137" d="M1255.6,1000.014c1.626,1.315,2.634,2.763,2.253,3.235s-2.011-.207-3.636-1.521-2.634-2.761-2.251-3.235S1253.979,998.7,1255.6,1000.014Z" fill="#fff"/>
    </g>
    <g id="グループ_120" data-name="グループ 120">
      <path id="パス_138" data-name="パス 138" d="M1256.4,987.862c1.626,1.312,2.634,2.762,2.251,3.234s-2.009-.206-3.635-1.521-2.634-2.76-2.253-3.235S1254.776,986.548,1256.4,987.862Z" fill="#fff"/>
    </g>
  </g>
</svg>
