<svg xmlns="http://www.w3.org/2000/svg" width="78.953" height="111.798" viewBox="0 0 78.953 111.798">
  <g id="グループ_145" data-name="グループ 145" transform="translate(-366.535 -560.019)">
    <g id="グループ_144" data-name="グループ 144">
      <path id="パス_158" data-name="パス 158" d="M404.913,629.633l-.109.06c-.129-.239-.224-.459-.358-.7-13.01-17.972-22.4-36-30.145-52.609l1.282-.6a329.422,329.422,0,0,0,25.229,45.527c-4.594-11-5.247-19.887-2.137-28.568l1.33.476c-3.642,10.182-1.932,20.709,5.648,35.017a234.758,234.758,0,0,0,17.016,20.91c-7.075-13.011-8.7-23.923-5.1-34l1.331.474c-3.915,10.96-1.361,23.044,8.041,38.026a234.766,234.766,0,0,0,18.549,17.131c-.077-1.124-2.68-36.6-25.128-65.178a209.626,209.626,0,0,0-50.221-45.584S354.607,588.442,388.027,631c21.477,27.346,47.676,43.076,56.1,40.558A233.554,233.554,0,0,1,404.913,629.633Z" fill="#51942a"/>
    </g>
  </g>
</svg>
