<svg xmlns="http://www.w3.org/2000/svg" width="110.614" height="35.451" viewBox="0 0 110.614 35.451">
  <g id="グループ_147" data-name="グループ 147" transform="translate(-1261.519 -917.435)">
    <g id="グループ_146" data-name="グループ 146">
      <path id="パス_159" data-name="パス 159" d="M1309.842,941.261l.026.1c.222-.059.409-.128.626-.187a263.74,263.74,0,0,0,49.3-11.863l-.373-1.125a275.323,275.323,0,0,1-42.17,10.792c9.325-3.52,15.106-8.227,18.6-15.1l-1.053-.537c-4.1,8.062-11.485,13.064-24.539,16.666a196.134,196.134,0,0,1-22.482,1.657c11.97-3.165,19.545-8.44,23.6-16.412l-1.052-.536c-4.418,8.673-13.235,14.054-27.744,16.937a197.107,197.107,0,0,1-21.068-1.451c.73-.6,23.8-19.378,54.064-22.131a175.344,175.344,0,0,1,56.55,4.379s-8.372,25.762-53.435,29.861c-28.96,2.635-53.565-4.271-56.866-10.839A195.448,195.448,0,0,0,1309.842,941.261Z" fill="#51942a"/>
    </g>
  </g>
</svg>
