<svg xmlns="http://www.w3.org/2000/svg" width="54.342" height="117.008" viewBox="0 0 54.342 117.008">
  <path id="パス_157" data-name="パス 157" d="M562.927,696.886s9.527-21.458,13.961-24.354,22.939-13.164,21.616-19.27-2.09-2.439-3.1-5.943,11.257-10.448,10.026-14.259-3.564-2.505-4.328-3.821,1.774-6.087,5.109-9.8,6.089-10.077,3.968-11.31-3.785,4.064-5.757,2.717,3.666-11.077,6.423-16.494,5.891-11.586,1.384-14.085-8.479,7.865-9.332,10.172-2.849,14.962-5.037,15.2-3.069-8.094-5.636-8.041-3.353,6.815-2.622,9.338,1.851,12.1-.408,12.872-3.4-6.659-6.34-5.848-4.262,6.556-3.9,9.836,2.361,15.27-.65,16.61-3.426-4.507-7.457-3.576-4.742,8.106-4.381,11.386,4.122,19.147,3.353,22.811-9.66,24.4-9.66,24.4Z" transform="translate(-560.163 -579.878)" fill="#8ec020"/>
</svg>
