<svg xmlns="http://www.w3.org/2000/svg" width="87.524" height="93.512" viewBox="0 0 87.524 93.512">
  <g id="グループ_139" data-name="グループ 139" transform="translate(-360 -423.288)">
    <g id="グループ_131" data-name="グループ 131">
      <path id="パス_147" data-name="パス 147" d="M410.746,423.307c-2.469-.2-4.814,1.25-6.549,3.707-2.562-1.578-5.289-2-7.48-.84-4.075,2.151-4.744,8.883-1.5,15.039s14.993,15.23,14.993,15.23,7.241-12.955,7.811-19.89S415.338,423.686,410.746,423.307Z" fill="#8ec020"/>
    </g>
    <g id="グループ_132" data-name="グループ 132">
      <path id="パス_148" data-name="パス 148" d="M446.822,432.365a5.679,5.679,0,0,0-5.231-2.211,5.682,5.682,0,0,0-2.94-4.859c-3.16-1.446-7.494,1.251-9.679,6.027s-2.207,15.972-2.207,15.972,11.078-1.631,15.488-4.483S448.709,435.284,446.822,432.365Z" fill="#8ec020"/>
    </g>
    <g id="グループ_133" data-name="グループ 133">
      <path id="パス_149" data-name="パス 149" d="M381.678,468.722a4.806,4.806,0,0,0,.606,4.767,4.809,4.809,0,0,0-2.3,4.22c.285,2.929,4.1,4.949,8.53,4.52s12.622-5.179,12.622-5.179-5.9-7.41-9.864-9.425S383.01,466.1,381.678,468.722Z" fill="#8ec020"/>
    </g>
    <g id="グループ_134" data-name="グループ 134">
      <path id="パス_150" data-name="パス 150" d="M367.012,434.979c-1.751,1.754-2.166,4.483-1.4,7.395-2.86.931-4.942,2.744-5.476,5.163-.995,4.5,3.71,9.364,10.507,10.866s21.309-1.591,21.309-1.591-5.2-13.9-10.121-18.82S370.273,431.721,367.012,434.979Z" fill="#8ec020"/>
    </g>
    <g id="グループ_135" data-name="グループ 135">
      <path id="パス_151" data-name="パス 151" d="M443.389,507.424l-2.1.932c-9.424-21.164-34.606-42.213-54.016-52.812l1.1-2.016C408.775,464.67,433.7,485.657,443.389,507.424Z" fill="#8ec020"/>
    </g>
    <g id="グループ_136" data-name="グループ 136">
      <path id="パス_152" data-name="パス 152" d="M441.3,515.868l-2.1.932c-8.428-18.928-23.26-35.15-40.435-39.147l.521-2.233C417.239,479.6,432.558,496.221,441.3,515.868Z" fill="#8ec020"/>
    </g>
    <g id="グループ_137" data-name="グループ 137">
      <path id="パス_153" data-name="パス 153" d="M433.44,511.855l-2.1.934c-6.709-15.069-19.914-49.283-23.55-61.014l2.192-.677C413.6,462.772,426.752,496.842,433.44,511.855Z" fill="#8ec020"/>
    </g>
    <g id="グループ_138" data-name="グループ 138">
      <path id="パス_154" data-name="パス 154" d="M425.1,508.864l-2.1.934c-13.679-30.721-1.089-59.7,4.618-65.065l1.57,1.675C424.371,450.927,411.8,479.013,425.1,508.864Z" fill="#8ec020"/>
    </g>
  </g>
</svg>
