<svg xmlns="http://www.w3.org/2000/svg" width="213.331" height="162.679" viewBox="0 0 213.331 162.679">
  <path id="パス_20" data-name="パス 20" d="M707.4,72.29l3.85,4.444A97.545,97.545,0,0,1,737.2,71.419l1.361-4.456,1.491,4.376c10.838-.077,18.611,2.665,22.518,6.844l1.042-.295a34.883,34.883,0,0,1,3.98-.987c.839-.143,1.735-.369,2.711-.473l3.072-.308c1.074-.012,2.185-.026,3.31-.042,1.128.086,2.278.143,3.422.277,1.135.2,2.292.3,3.385.607a28.851,28.851,0,0,1,3.213.892,31.608,31.608,0,0,1,5.432,2.354,28.276,28.276,0,0,1,3.573,2.293c.415.324.741.579,1,.812l.328.293-3.815,4.167-.242-.205-.677-.519a22.649,22.649,0,0,0-2.892-1.767,25.774,25.774,0,0,0-4.511-1.833,23.026,23.026,0,0,0-2.674-.683c-.909-.24-1.876-.285-2.816-.443-.954-.089-1.91-.111-2.856-.17l-2.779.1-2.595.319c-.824.1-1.592.324-2.307.459a29.4,29.4,0,0,0-3.416.927l-.085.026c.715,5.475-2.133,10.779-7.149,15.977l1.272,3.522-2.857-1.951c-6.688,6.365-16.457,12.558-26.857,18.68l1.869,5.169L726.714,122c-8.446,4.916-17.112,9.788-24.728,14.661l1.72,4.76-4.407-3.01a97.285,97.285,0,0,0-12,9.128,73.391,73.391,0,0,0-7.188,7.941l3.653,4.975-6.019-1.949c-4.841,6.34-10.038,13.98-15.579,21.871l3.621,4.932L660,183.44c-5.27,7.429-10.827,14.926-16.629,21.6l3.36,4.577-5.78-1.869c-6.7,7.33-13.715,13.4-21,16.917l1,4.975-3.979-3.694a26.814,26.814,0,0,1-17.678.9,19.217,19.217,0,0,1-4.849-2.2l-3.731,3.21,1.248-5.173c-6.4-6.113-7.269-17.117-3.1-30.73l-5.156-4.84,6.494.841a125.938,125.938,0,0,1,13.639-26.1L599.2,157.2l7.037,1.148a211.171,211.171,0,0,1,21.793-26.068L625.12,127.5l5.4,2.294a260.076,260.076,0,0,1,24.339-21.341c.646-.5,1.283-.963,1.923-1.452l-2.112-4.839,4.778,2.826a236.151,236.151,0,0,1,20.567-13.677l-1.47-5.789,4.693,3.936A167.7,167.7,0,0,1,707.9,77.912Z" transform="translate(-583.708 -66.963)" fill="#82a63b"/>
</svg>
